# xmcd CD database file
#
# Track frame offsets:
#	150
#	21815
#	48445
#	67697
#	90542
#	105872
#	127635
#	144405
#	156540
#	177427
#
# Disc length: 2664 seconds
#
# Revision: 0
# Processed by: cddbd v1.5.1PL0 Copyright (c) Steve Scherf et al.
# Submitted via: CDex 1.51
#
DISCID=730a660a
DTITLE=高橋美佳子 - 超プラドル
DYEAR=2000
DGENRE=Pop
TTITLE0=アハハでいきます 〜笑ウーマン〜
TTITLE1=ワイルドアニマルちゃん 〜よくよく動物ランド〜
TTITLE2=恋の Treasure Land
TTITLE3=VIVA MY OFFICE LOVE
TTITLE4=チープな悩みのレクイエム
TTITLE5=パラパラパラレルワールド
TTITLE6=愛のカウントダウン
TTITLE7=Surfer in the Server
TTITLE8=冬のダービ−レース
TTITLE9=すべてがハピネス
EXTD=YEAR: 2000
EXTT0=
EXTT1=
EXTT2=
EXTT3=
EXTT4=
EXTT5=
EXTT6=
EXTT7=
EXTT8=
EXTT9=
PLAYORDER=
